<?xml version="1.0" encoding="UTF-8"?>
<svg xmlns="http://www.w3.org/2000/svg" xmlns:xlink="http://www.w3.org/1999/xlink" version="1.1" width="1311px" height="904px" viewBox="-0.5 -0.5 1311 904">
  <defs>
    <clipPath id="mx-clip-34-145-332-30-0">
      <rect x="34" y="145" width="332" height="30"></rect>
    </clipPath>
    <clipPath id="mx-clip-4-255-392-70-0">
      <rect x="4" y="255" width="392" height="70"></rect>
    </clipPath>
    <clipPath id="mx-clip-44-405-312-30-0">
      <rect x="44" y="405" width="312" height="30"></rect>
    </clipPath>
    <clipPath id="mx-clip-54-505-292-30-0">
      <rect x="54" y="505" width="292" height="30"></rect>
    </clipPath>
    <clipPath id="mx-clip-494-390-312-60-0">
      <rect x="494" y="390" width="312" height="60"></rect>
    </clipPath>
    <clipPath id="mx-clip-944-145-312-30-0">
      <rect x="944" y="145" width="312" height="30"></rect>
    </clipPath>
    <clipPath id="mx-clip-944-255-312-30-0">
      <rect x="944" y="255" width="312" height="30"></rect>
    </clipPath>
    <clipPath id="mx-clip-944-365-342-30-0">
      <rect x="944" y="365" width="342" height="30"></rect>
    </clipPath>
    <clipPath id="mx-clip-944-635-312-30-0">
      <rect x="944" y="635" width="312" height="30"></rect>
    </clipPath>
    <clipPath id="mx-clip-944-525-362-30-0">
      <rect x="944" y="525" width="362" height="30"></rect>
    </clipPath>
    <clipPath id="mx-clip-524-635-332-30-0">
      <rect x="524" y="635" width="332" height="30"></rect>
    </clipPath>
    <clipPath id="mx-clip-524-785-332-30-0">
      <rect x="524" y="785" width="332" height="30"></rect>
    </clipPath>
    <clipPath id="mx-clip-524-875-332-30-0">
      <rect x="524" y="875" width="332" height="30"></rect>
    </clipPath>
  </defs>
  <g>
    <path d="M 200 170 L 200 190 L 200 213.63" fill="none" stroke="rgb(0, 0, 0)" stroke-miterlimit="10"></path>
    <path d="M 200 218.88 L 196.5 211.88 L 200 213.63 L 203.5 211.88 Z" fill="rgb(0, 0, 0)" stroke="rgb(0, 0, 0)" stroke-miterlimit="10"></path>
    <g transform="translate(-0.5 -0.5)">
      <switch>
        <text x="200" y="195" fill="#000000" font-family="Helvetica" font-size="12px" text-anchor="middle">calls</text>
      </switch>
    </g>
    <path d="M 30 140 L 30 110 L 370 110 L 370 140" fill="none" stroke="rgb(0, 0, 0)" stroke-miterlimit="10"></path>
    <path d="M 30 140 L 30 170 L 370 170 L 370 140" fill="none" stroke="rgb(0, 0, 0)" stroke-miterlimit="10"></path>
    <path d="M 30 140 L 370 140" fill="none" stroke="rgb(0, 0, 0)" stroke-miterlimit="10"></path>
    <g fill="rgb(0, 0, 0)" font-family="Helvetica" font-weight="bold" text-anchor="middle" font-size="12px">
      <text x="199.5" y="122.5">app/packs/src/components/contextActions/CreateButton.js</text>
      <text x="199.5" y="136.5">class ContextActions extends React.Component</text>
    </g>
    <g fill="rgb(0, 0, 0)" font-family="Helvetica" clip-path="url(#mx-clip-34-145-332-30-0)" font-size="12px">
      <text x="35.5" y="157.5">createElementOfType(type="reaction")</text>
    </g>
    <path d="M 200 320 L 200 360 L 200 363.63" fill="none" stroke="rgb(0, 0, 0)" stroke-miterlimit="10"></path>
    <path d="M 200 368.88 L 196.5 361.88 L 200 363.63 L 203.5 361.88 Z" fill="rgb(0, 0, 0)" stroke="rgb(0, 0, 0)" stroke-miterlimit="10"></path>
    <g transform="translate(-0.5 -0.5)">
      <switch>
        <text x="201" y="345" fill="#000000" font-family="Helvetica" font-size="12px" text-anchor="middle">calls</text>
      </switch>
    </g>
    <path d="M 0 250 L 0 220 L 400 220 L 400 250" fill="none" stroke="rgb(0, 0, 0)" stroke-miterlimit="10"></path>
    <path d="M 0 250 L 0 320 L 400 320 L 400 250" fill="none" stroke="rgb(0, 0, 0)" stroke-miterlimit="10"></path>
    <path d="M 0 250 L 400 250" fill="none" stroke="rgb(0, 0, 0)" stroke-miterlimit="10"></path>
    <g fill="rgb(0, 0, 0)" font-family="Helvetica" font-weight="bold" text-anchor="middle" font-size="12px">
      <text x="199.5" y="239.5">app/packs/src/components/routesUtils.js</text>
    </g>
    <g fill="rgb(0, 0, 0)" font-family="Helvetica" clip-path="url(#mx-clip-4-255-392-70-0)" text-anchor="middle" font-size="12px">
      <text x="199.5" y="267.5">elementShowOrNew(type="reaction", reactionID="new", collectionID=int)</text>
      <text x="199.5" y="281.5">calls</text>
      <text x="199.5" y="295.5">reactionShow(type="reaction", reactionID="new", collectionID=int)</text>
    </g>
    <path d="M 200 430 L 200 463.63" fill="none" stroke="rgb(0, 0, 0)" stroke-miterlimit="10"></path>
    <path d="M 200 468.88 L 196.5 461.88 L 200 463.63 L 203.5 461.88 Z" fill="rgb(0, 0, 0)" stroke="rgb(0, 0, 0)" stroke-miterlimit="10"></path>
    <g transform="translate(-0.5 -0.5)">
      <switch>
        <text x="201" y="454" fill="#000000" font-family="Helvetica" font-size="12px" text-anchor="middle">calls</text>
      </switch>
    </g>
    <path d="M 40 400 L 40 370 L 360 370 L 360 400" fill="none" stroke="rgb(0, 0, 0)" stroke-miterlimit="10"></path>
    <path d="M 40 400 L 40 430 L 360 430 L 360 400" fill="none" stroke="rgb(0, 0, 0)" stroke-miterlimit="10"></path>
    <path d="M 40 400 L 360 400" fill="none" stroke="rgb(0, 0, 0)" stroke-miterlimit="10"></path>
    <g fill="rgb(0, 0, 0)" font-family="Helvetica" font-weight="bold" text-anchor="middle" font-size="12px">
      <text x="199.5" y="382.5">app/packs/src/components/actions/ElementActions.js</text>
      <text x="199.5" y="396.5">class ElementActions</text>
    </g>
    <g fill="rgb(0, 0, 0)" font-family="Helvetica" clip-path="url(#mx-clip-44-405-312-30-0)" font-size="12px">
      <text x="45.5" y="417.5">generateEmptyReaction(collectionID=int)</text>
    </g>
    <path d="M 50 500 L 50 470 L 350 470 L 350 500" fill="none" stroke="rgb(0, 0, 0)" stroke-miterlimit="10"></path>
    <path d="M 50 500 L 50 530 L 350 530 L 350 500" fill="none" stroke="rgb(0, 0, 0)" stroke-miterlimit="10"></path>
    <path d="M 50 500 L 350 500" fill="none" stroke="rgb(0, 0, 0)" stroke-miterlimit="10"></path>
    <g fill="rgb(0, 0, 0)" font-family="Helvetica" font-weight="bold" text-anchor="middle" font-size="12px">
      <text x="199.5" y="482.5">app/packs/src/components/models/Reaction.js</text>
      <text x="199.5" y="496.5">class Reaction extends Element</text>
    </g>
    <g fill="rgb(0, 0, 0)" font-family="Helvetica" clip-path="url(#mx-clip-54-505-292-30-0)" font-size="12px">
      <text x="55.5" y="517.5">buildEmpty(collectionID=int)</text>
    </g>
    <path d="M 490 385 L 490 355 L 810 355 L 810 385" fill="none" stroke="rgb(0, 0, 0)" stroke-miterlimit="10"></path>
    <path d="M 490 385 L 490 445 L 810 445 L 810 385" fill="none" stroke="rgb(0, 0, 0)" stroke-miterlimit="10"></path>
    <path d="M 490 385 L 810 385" fill="none" stroke="rgb(0, 0, 0)" stroke-miterlimit="10"></path>
    <g fill="rgb(0, 0, 0)" font-family="Helvetica" font-weight="bold" text-anchor="middle" font-size="12px">
      <text x="649.5" y="367.5">app/packs/src/components/stores/ElementStore.js</text>
      <text x="649.5" y="381.5">class ElementStore</text>
    </g>
    <g fill="rgb(0, 0, 0)" font-family="Helvetica" clip-path="url(#mx-clip-494-390-312-60-0)" text-anchor="middle" font-size="12px">
      <text x="649.5" y="402.5">handleGenerateEmptyElement(element=this.state)</text>
      <text x="649.5" y="416.5">calls</text>
      <text x="649.5" y="430.5">changeCurrentElement(element)</text>
    </g>
    <path d="M 952 138 L 881 138 L 881 400 L 816.37 400" fill="none" stroke="rgb(0, 0, 0)" stroke-miterlimit="10"></path>
    <path d="M 811.12 400 L 818.12 396.5 L 816.37 400 L 818.12 403.5 Z" fill="rgb(0, 0, 0)" stroke="rgb(0, 0, 0)" stroke-miterlimit="10"></path>
    <g transform="translate(-0.5 -0.5)">
      <switch>
        <text x="882" y="273" fill="#000000" font-family="Helvetica" font-size="12px" text-anchor="middle">listenes...</text>
      </switch>
    </g>
    <path d="M 1100 170 L 1100 195 L 1100 213.63" fill="none" stroke="rgb(0, 0, 0)" stroke-miterlimit="10"></path>
    <path d="M 1100 218.88 L 1096.5 211.88 L 1100 213.63 L 1103.5 211.88 Z" fill="rgb(0, 0, 0)" stroke="rgb(0, 0, 0)" stroke-miterlimit="10"></path>
    <g transform="translate(-0.5 -0.5)">
      <switch>
        <text x="1101" y="199" fill="#000000" font-family="Helvetica" font-size="12px" text-anchor="middle">renders</text>
      </switch>
    </g>
    <path d="M 940 140 L 940 110 L 1260 110 L 1260 140" fill="none" stroke="rgb(0, 0, 0)" stroke-miterlimit="10"></path>
    <path d="M 940 140 L 940 170 L 1260 170 L 1260 140" fill="none" stroke="rgb(0, 0, 0)" stroke-miterlimit="10"></path>
    <path d="M 940 140 L 1260 140" fill="none" stroke="rgb(0, 0, 0)" stroke-miterlimit="10"></path>
    <g fill="rgb(0, 0, 0)" font-family="Helvetica" font-weight="bold" text-anchor="middle" font-size="12px">
      <text x="1099.5" y="122.5">app/packs/src/components/Elements.js</text>
      <text x="1099.5" y="136.5">class Elements extends React.Component</text>
    </g>
    <g fill="rgb(0, 0, 0)" font-family="Helvetica" clip-path="url(#mx-clip-944-145-312-30-0)" font-size="12px">
      <text x="945.5" y="157.5">render()</text>
    </g>
    <path d="M 1100 280 L 1100 305 L 1100 323.63" fill="none" stroke="rgb(0, 0, 0)" stroke-miterlimit="10"></path>
    <path d="M 1100 328.88 L 1096.5 321.88 L 1100 323.63 L 1103.5 321.88 Z" fill="rgb(0, 0, 0)" stroke="rgb(0, 0, 0)" stroke-miterlimit="10"></path>
    <g transform="translate(-0.5 -0.5)">
      <switch>
        <text x="1101" y="309" fill="#000000" font-family="Helvetica" font-size="12px" text-anchor="middle">renders</text>
      </switch>
    </g>
    <path d="M 940 250 L 940 220 L 1260 220 L 1260 250" fill="none" stroke="rgb(0, 0, 0)" stroke-miterlimit="10"></path>
    <path d="M 940 250 L 940 280 L 1260 280 L 1260 250" fill="none" stroke="rgb(0, 0, 0)" stroke-miterlimit="10"></path>
    <path d="M 940 250 L 1260 250" fill="none" stroke="rgb(0, 0, 0)" stroke-miterlimit="10"></path>
    <g fill="rgb(0, 0, 0)" font-family="Helvetica" font-weight="bold" text-anchor="middle" font-size="12px">
      <text x="1099.5" y="232.5">app/packs/src/components/ElementDetails.js</text>
      <text x="1099.5" y="246.5">class ElementDetails extends React.Component</text>
    </g>
    <g fill="rgb(0, 0, 0)" font-family="Helvetica" clip-path="url(#mx-clip-944-255-312-30-0)" font-size="12px">
      <text x="945.5" y="267.5">render()</text>
    </g>
    <path d="M 1100 390 L 1100 410 L 1100 423.63" fill="none" stroke="rgb(0, 0, 0)" stroke-miterlimit="10"></path>
    <path d="M 1100 428.88 L 1096.5 421.88 L 1100 423.63 L 1103.5 421.88 Z" fill="rgb(0, 0, 0)" stroke="rgb(0, 0, 0)" stroke-miterlimit="10"></path>
    <path d="M 940 360 L 940 330 L 1290 330 L 1290 360" fill="none" stroke="rgb(0, 0, 0)" stroke-miterlimit="10"></path>
    <path d="M 940 360 L 940 390 L 1290 390 L 1290 360" fill="none" stroke="rgb(0, 0, 0)" stroke-miterlimit="10"></path>
    <path d="M 940 360 L 1290 360" fill="none" stroke="rgb(0, 0, 0)" stroke-miterlimit="10"></path>
    <g fill="rgb(0, 0, 0)" font-family="Helvetica" font-weight="bold" text-anchor="middle" font-size="12px">
      <text x="1114.5" y="342.5">app/packs/src/components/ReactionDetails.js</text>
      <text x="1114.5" y="356.5">class ReactionDetailsProperties extends React.Component</text>
    </g>
    <g fill="rgb(0, 0, 0)" font-family="Helvetica" clip-path="url(#mx-clip-944-365-342-30-0)" font-size="12px">
      <text x="945.5" y="377.5">render()</text>
    </g>
    <path d="M 940 630 L 866.37 630" fill="none" stroke="rgb(0, 0, 0)" stroke-miterlimit="10"></path>
    <path d="M 861.12 630 L 868.12 626.5 L 866.37 630 L 868.12 633.5 Z" fill="rgb(0, 0, 0)" stroke="rgb(0, 0, 0)" stroke-miterlimit="10"></path>
    <g transform="translate(-0.5 -0.5)">
      <switch>
        <text x="901" y="634" fill="rgb(0, 0, 0)" font-family="Helvetica" font-size="12px" text-anchor="middle">calls</text>
      </switch>
    </g>
    <path d="M 940 630 L 940 600 L 1260 600 L 1260 630" fill="none" stroke="rgb(0, 0, 0)" stroke-miterlimit="10"></path>
    <path d="M 940 630 L 940 660 L 1260 660 L 1260 630" fill="none" stroke="rgb(0, 0, 0)" stroke-miterlimit="10"></path>
    <path d="M 940 630 L 1260 630" fill="none" stroke="rgb(0, 0, 0)" stroke-miterlimit="10"></path>
    <g fill="rgb(0, 0, 0)" font-family="Helvetica" font-weight="bold" text-anchor="middle" font-size="12px">
      <text x="1099.5" y="612.5">app/packs/src/components/actions/ElementActions.js</text>
      <text x="1099.5" y="626.5">class ElementActions</text>
    </g>
    <g fill="rgb(0, 0, 0)" font-family="Helvetica" clip-path="url(#mx-clip-944-635-312-30-0)" font-size="12px">
      <text x="945.5" y="647.5">createReaction(reaction)</text>
    </g>
    <path d="M 1100 550 L 1100 593.63" fill="none" stroke="rgb(0, 0, 0)" stroke-miterlimit="10"></path>
    <path d="M 1100 598.88 L 1096.5 591.88 L 1100 593.63 L 1103.5 591.88 Z" fill="rgb(0, 0, 0)" stroke="rgb(0, 0, 0)" stroke-miterlimit="10"></path>
    <g transform="translate(-0.5 -0.5)">
      <switch>
        <text x="1101" y="579" fill="rgb(0, 0, 0)" font-family="Helvetica" font-size="12px" text-anchor="middle">calls</text>
      </switch>
    </g>
    <path d="M 940 520 L 940 490 L 1310 490 L 1310 520" fill="none" stroke="rgb(0, 0, 0)" stroke-miterlimit="10"></path>
    <path d="M 940 520 L 940 550 L 1310 550 L 1310 520" fill="none" stroke="rgb(0, 0, 0)" stroke-miterlimit="10"></path>
    <path d="M 940 520 L 1310 520" fill="none" stroke="rgb(0, 0, 0)" stroke-miterlimit="10"></path>
    <g fill="rgb(0, 0, 0)" font-family="Helvetica" font-weight="bold" text-anchor="middle" font-size="12px">
      <text x="1124.5" y="502.5">app/packs/src/components/ReactionDetails.js</text>
      <text x="1124.5" y="516.5">class ReactionDetailsProperties extends React.Component</text>
    </g>
    <g fill="rgb(0, 0, 0)" font-family="Helvetica" clip-path="url(#mx-clip-944-525-362-30-0)" font-size="12px">
      <text x="945.5" y="537.5">handleSubmit()</text>
    </g>
    <path d="M 690 660 L 690 743.63" fill="none" stroke="rgb(0, 0, 0)" stroke-miterlimit="10"></path>
    <path d="M 690 748.88 L 686.5 741.88 L 690 743.63 L 693.5 741.88 Z" fill="rgb(0, 0, 0)" stroke="rgb(0, 0, 0)" stroke-miterlimit="10"></path>
    <g transform="translate(-0.5 -0.5)">
      <switch>
        <text x="691" y="707" fill="rgb(0, 0, 0)" font-family="Helvetica" font-size="12px" text-anchor="middle">REST...</text>
      </switch>
    </g>
    <path d="M 520 630 L 520 600 L 860 600 L 860 630" fill="none" stroke="rgb(0, 0, 0)" stroke-miterlimit="10"></path>
    <path d="M 520 630 L 520 660 L 860 660 L 860 630" fill="none" stroke="rgb(0, 0, 0)" stroke-miterlimit="10"></path>
    <path d="M 520 630 L 860 630" fill="none" stroke="rgb(0, 0, 0)" stroke-miterlimit="10"></path>
    <g fill="rgb(0, 0, 0)" font-family="Helvetica" font-weight="bold" text-anchor="middle" font-size="12px">
      <text x="689.5" y="612.5">app/packs/src/components/fetchers/ReactionsFetcher.js</text>
      <text x="689.5" y="626.5">class ReactionsFetcher</text>
    </g>
    <g fill="rgb(0, 0, 0)" font-family="Helvetica" clip-path="url(#mx-clip-524-635-332-30-0)" font-size="12px">
      <text x="525.5" y="647.5">create(reaction, method="post")</text>
    </g>
    <path d="M 690 810 L 690 830 L 690 820 L 690 833.63" fill="none" stroke="rgb(0, 0, 0)" stroke-miterlimit="10"></path>
    <path d="M 690 838.88 L 686.5 831.88 L 690 833.63 L 693.5 831.88 Z" fill="rgb(0, 0, 0)" stroke="rgb(0, 0, 0)" stroke-miterlimit="10"></path>
    <g transform="translate(-0.5 -0.5)">
      <switch>
        <text x="691" y="829" fill="#000000" font-family="Helvetica" font-size="12px" text-anchor="middle">calls</text>
      </switch>
    </g>
    <path d="M 520 780 L 520 750 L 860 750 L 860 780" fill="none" stroke="rgb(0, 0, 0)" stroke-miterlimit="10"></path>
    <path d="M 520 780 L 520 810 L 860 810 L 860 780" fill="none" stroke="rgb(0, 0, 0)" stroke-miterlimit="10"></path>
    <path d="M 520 780 L 860 780" fill="none" stroke="rgb(0, 0, 0)" stroke-miterlimit="10"></path>
    <g fill="rgb(0, 0, 0)" font-family="Helvetica" font-weight="bold" text-anchor="middle" font-size="12px">
      <text x="689.5" y="762.5">app/api/chemotion/reaction_api.rb</text>
      <text x="689.5" y="776.5"> class ReactionAPI < Grape::API</text>
    </g>
    <g fill="rgb(0, 0, 0)" font-family="Helvetica" clip-path="url(#mx-clip-524-785-332-30-0)" font-size="12px">
      <text x="525.5" y="797.5">post</text>
    </g>
    <path d="M 860 870 L 970 870 L 1073.63 870" fill="none" stroke="rgb(0, 0, 0)" stroke-miterlimit="10"></path>
    <path d="M 1078.88 870 L 1071.88 873.5 L 1073.63 870 L 1071.88 866.5 Z" fill="rgb(0, 0, 0)" stroke="rgb(0, 0, 0)" stroke-miterlimit="10"></path>
    <g transform="translate(-0.5 -0.5)">
      <switch>
        <text x="949" y="874" fill="#000000" font-family="Helvetica" font-size="12px" text-anchor="middle">persists</text>
      </switch>
    </g>
    <path d="M 520 870 L 520 840 L 860 840 L 860 870" fill="none" stroke="rgb(0, 0, 0)" stroke-miterlimit="10"></path>
    <path d="M 520 870 L 520 900 L 860 900 L 860 870" fill="none" stroke="rgb(0, 0, 0)" stroke-miterlimit="10"></path>
    <path d="M 520 870 L 860 870" fill="none" stroke="rgb(0, 0, 0)" stroke-miterlimit="10"></path>
    <g fill="rgb(0, 0, 0)" font-family="Helvetica" font-weight="bold" text-anchor="middle" font-size="12px">
      <text x="689.5" y="852.5">app/models/reaction.rb</text>
      <text x="689.5" y="866.5">class Reaction < ApplicationRecord</text>
    </g>
    <g fill="rgb(0, 0, 0)" font-family="Helvetica" clip-path="url(#mx-clip-524-875-332-30-0)" font-size="12px">
      <text x="525.5" y="887.5">create()!</text>
    </g>
    <path d="M 200 60 L 200 103.63" fill="none" stroke="rgb(0, 0, 0)" stroke-miterlimit="10"></path>
    <path d="M 200 108.88 L 196.5 101.88 L 200 103.63 L 203.5 101.88 Z" fill="rgb(0, 0, 0)" stroke="rgb(0, 0, 0)" stroke-miterlimit="10"></path>
    <g transform="translate(-0.5 -0.5)">
      <switch>
        <text x="201" y="85" fill="#000000" font-family="Helvetica" font-size="12px" text-anchor="middle">triggers</text>
      </switch>
    </g>
    <rect x="110" y="0" width="180" height="60" fill="rgb(255, 255, 255)" stroke="rgb(0, 0, 0)"></rect>
    <g transform="translate(-0.5 -0.5)">
      <switch>
        <text x="200" y="34" fill="#000000" font-family="Helvetica" font-size="12px" text-anchor="middle">in a collection, in reactions...</text>
      </switch>
    </g>
    <path d="M 1100 460 L 1100 475 L 1100 483.63" fill="none" stroke="rgb(0, 0, 0)" stroke-miterlimit="10"></path>
    <path d="M 1100 488.88 L 1096.5 481.88 L 1100 483.63 L 1103.5 481.88 Z" fill="rgb(0, 0, 0)" stroke="rgb(0, 0, 0)" stroke-miterlimit="10"></path>
    <rect x="1020" y="430" width="160" height="30" fill="rgb(255, 255, 255)" stroke="rgb(0, 0, 0)"></rect>
    <g transform="translate(-0.5 -0.5)">
      <switch>
        <text x="1100" y="449" fill="#000000" font-family="Helvetica" font-size="12px" text-anchor="middle">user populates reaction...</text>
      </switch>
    </g>
    <path d="M 490 400 L 425 400 L 366.37 400" fill="none" stroke="rgb(0, 0, 0)" stroke-miterlimit="10"></path>
    <path d="M 361.12 400 L 368.12 396.5 L 366.37 400 L 368.12 403.5 Z" fill="rgb(0, 0, 0)" stroke="rgb(0, 0, 0)" stroke-miterlimit="10"></path>
    <g transform="translate(-0.5 -0.5)">
      <switch>
        <text x="426" y="404" fill="#000000" font-family="Helvetica" font-size="12px" text-anchor="middle">listenes...</text>
      </switch>
    </g>
    <path d="M 1080 890 L 1080 850 C 1080 844.48 1093.43 840 1110 840 C 1126.57 840 1140 844.48 1140 850 L 1140 890 C 1140 895.52 1126.57 900 1110 900 C 1093.43 900 1080 895.52 1080 890 Z" fill="rgb(255, 255, 255)" stroke="rgb(0, 0, 0)" stroke-width="2" stroke-miterlimit="10"></path>
    <path d="M 1080 850 C 1080 855.52 1093.43 860 1110 860 C 1126.57 860 1140 855.52 1140 850" fill="none" stroke="rgb(0, 0, 0)" stroke-width="2" stroke-miterlimit="10"></path>
    <g transform="translate(-0.5 -0.5)">
      <switch>
        <text x="1110" y="874" fill="#000000" font-family="Helvetica" font-size="12px" text-anchor="middle">database</text>
      </switch>
    </g>
  </g>
  <switch>
    <g></g>
    <a transform="translate(0,-5)" xlink:href="https://www.diagrams.net/doc/faq/svg-export-text-problems">
      <text text-anchor="middle" font-size="10px" x="50%" y="100%">Text is not SVG - cannot display</text>
    </a>
  </switch>
</svg>
