<?xml version="1.0" encoding="UTF-8"?>
<svg xmlns="http://www.w3.org/2000/svg" xmlns:xlink="http://www.w3.org/1999/xlink" version="1.1" width="516px" height="488px" viewBox="-0.5 -0.5 516 488">
  <defs></defs>
  <g>
    <rect x="200" y="9" width="120" height="60" rx="9" ry="9" fill="rgb(255, 255, 255)" stroke="rgb(0, 0, 0)"></rect>
    <g transform="translate(-0.5 -0.5)">
      <switch>
        <text x="260" y="43" fill="rgb(0, 0, 0)" font-family="Helvetica" font-size="12px" text-anchor="middle">main</text>
      </switch>
    </g>
    <rect x="200" y="117" width="120" height="60" rx="9" ry="9" fill="rgb(255, 255, 255)" stroke="rgb(0, 0, 0)"></rect>
    <g transform="translate(-0.5 -0.5)">
      <switch>
        <text x="260" y="151" fill="rgb(0, 0, 0)" font-family="Helvetica" font-size="12px" text-anchor="middle">feature</text>
      </switch>
    </g>
    <rect x="50" y="357" width="120" height="60" rx="9" ry="9" fill="rgb(255, 255, 255)" stroke="rgb(0, 0, 0)"></rect>
    <g transform="translate(-0.5 -0.5)">
      <switch>
        <text x="110" y="391" fill="rgb(0, 0, 0)" font-family="Helvetica" font-size="12px" text-anchor="middle">feature-dev-a</text>
      </switch>
    </g>
    <path d="M 173 0 L 150 0 L 150 200 L 173 200" fill="rgb(255, 255, 255)" stroke="rgb(0, 0, 0)" stroke-miterlimit="10" stroke-dasharray="3 3"></path>
    <path d="M 173 0 L 350 0 L 350 200 L 173 200" fill="none" stroke="rgb(0, 0, 0)" stroke-miterlimit="10" stroke-dasharray="3 3"></path>
    <path d="M 173 0 L 173 200" fill="none" stroke="rgb(0, 0, 0)" stroke-miterlimit="10" stroke-dasharray="3 3"></path>
    <g transform="translate(-0.5 -0.5)rotate(-90 161.50000000000023 100)">
      <switch>
        <text x="162" y="104" fill="rgb(0, 0, 0)" font-family="Helvetica" font-size="12px" text-anchor="middle" font-weight="bold">GitHub</text>
      </switch>
    </g>
    <path d="M 23 287 L 0 287 L 0 487 L 23 487" fill="rgb(255, 255, 255)" stroke="rgb(0, 0, 0)" stroke-miterlimit="10" stroke-dasharray="3 3"></path>
    <path d="M 23 287 L 200 287 L 200 487 L 23 487" fill="none" stroke="rgb(0, 0, 0)" stroke-miterlimit="10" stroke-dasharray="3 3"></path>
    <path d="M 23 287 L 23 487" fill="none" stroke="rgb(0, 0, 0)" stroke-miterlimit="10" stroke-dasharray="3 3"></path>
    <g transform="translate(-0.5 -0.5)rotate(-90 11.500000000000227 387)">
      <switch>
        <text x="12" y="391" fill="rgb(0, 0, 0)" font-family="Helvetica" font-size="12px" text-anchor="middle" font-weight="bold">machine developer A</text>
      </switch>
    </g>
    <path d="M 338 284 L 315 284 L 315 484 L 338 484" fill="rgb(255, 255, 255)" stroke="rgb(0, 0, 0)" stroke-miterlimit="10" stroke-dasharray="3 3"></path>
    <path d="M 338 284 L 515 284 L 515 484 L 338 484" fill="none" stroke="rgb(0, 0, 0)" stroke-miterlimit="10" stroke-dasharray="3 3"></path>
    <path d="M 338 284 L 338 484" fill="none" stroke="rgb(0, 0, 0)" stroke-miterlimit="10" stroke-dasharray="3 3"></path>
    <g transform="translate(-0.5 -0.5)rotate(-90 326.5 384)">
      <switch>
        <text x="327" y="388" fill="rgb(0, 0, 0)" font-family="Helvetica" font-size="12px" text-anchor="middle" font-weight="bold">machine developer B</text>
      </switch>
    </g>
    <rect x="365" y="354" width="120" height="60" rx="9" ry="9" fill="rgb(255, 255, 255)" stroke="rgb(0, 0, 0)"></rect>
    <g transform="translate(-0.5 -0.5)">
      <switch>
        <text x="425" y="388" fill="rgb(0, 0, 0)" font-family="Helvetica" font-size="12px" text-anchor="middle">feature-dev-b</text>
      </switch>
    </g>
    <path d="M 114.52 347.96 L 200 177" fill="none" stroke="#6c8ebf" stroke-width="3" stroke-miterlimit="10"></path>
    <path d="M 111.5 354 L 111.5 343.94 L 114.52 347.96 L 119.55 347.96 Z" fill="#6c8ebf" stroke="#6c8ebf" stroke-width="3" stroke-miterlimit="10"></path>
    <path d="M 419.84 345.31 L 320 177" fill="none" stroke="#6c8ebf" stroke-width="3" stroke-miterlimit="10"></path>
    <path d="M 423.29 351.12 L 414.83 345.67 L 419.84 345.31 L 422.57 341.08 Z" fill="#6c8ebf" stroke="#6c8ebf" stroke-width="3" stroke-miterlimit="10"></path>
    <path d="M 225.48 186.04 L 140 357" fill="none" stroke="#6c8ebf" stroke-width="3" stroke-miterlimit="10"></path>
    <path d="M 228.5 180 L 228.5 190.06 L 225.48 186.04 L 220.45 186.04 Z" fill="#6c8ebf" stroke="#6c8ebf" stroke-width="3" stroke-miterlimit="10"></path>
    <path d="M 295.16 185.69 L 395 354" fill="none" stroke="#6c8ebf" stroke-width="3" stroke-miterlimit="10"></path>
    <path d="M 291.71 179.88 L 300.17 185.33 L 295.16 185.69 L 292.43 189.92 Z" fill="#6c8ebf" stroke="#6c8ebf" stroke-width="3" stroke-miterlimit="10"></path>
    <path d="M 320 69 L 450.67 344.87" fill="none" stroke="#6c8ebf" stroke-width="3" stroke-miterlimit="10"></path>
    <path d="M 453.56 350.97 L 445.64 344.76 L 450.67 344.87 L 453.78 340.91 Z" fill="#6c8ebf" stroke="#6c8ebf" stroke-width="3" stroke-miterlimit="10"></path>
    <path d="M 200 69 L 83.89 347.67" fill="none" stroke="#6c8ebf" stroke-width="3" stroke-miterlimit="10"></path>
    <path d="M 81.29 353.9 L 80.6 343.87 L 83.89 347.67 L 88.91 347.33 Z" fill="#6c8ebf" stroke="#6c8ebf" stroke-width="3" stroke-miterlimit="10"></path>
    <path d="M 260 117 L 260 79.1" fill="none" stroke="#6c8ebf" stroke-width="3" stroke-miterlimit="10"></path>
    <path d="M 260 72.35 L 264.5 81.35 L 260 79.1 L 255.5 81.35 Z" fill="#6c8ebf" stroke="#6c8ebf" stroke-width="3" stroke-miterlimit="10"></path>
    <g transform="translate(-0.5 -0.5)">
      <switch>
        <text x="262" y="100" fill="rgb(0, 0, 0)" font-family="Helvetica" font-size="11px" text-anchor="middle">pull request</text>
      </switch>
    </g>
  </g>
  <switch>
    <g></g>
    <a transform="translate(0,-5)" xlink:href="https://www.diagrams.net/doc/faq/svg-export-text-problems">
      <text text-anchor="middle" font-size="10px" x="50%" y="100%">Text is not SVG - cannot display</text>
    </a>
  </switch>
</svg>
