<svg width="2237" height="717" xmlns="http://www.w3.org/2000/svg" xmlns:xlink="http://www.w3.org/1999/xlink" overflow="hidden"><defs><clipPath id="clip0"><rect x="5254" y="9149" width="2237" height="717"/></clipPath></defs><g clip-path="url(#clip0)" transform="translate(-5254 -9149)"><rect x="5255.5" y="9159.5" width="416" height="698" stroke="#1F497D" stroke-width="3.4375" stroke-linejoin="round" stroke-miterlimit="10" fill="#00ABC5"/><text font-family="Arial,Arial_MSFontService,sans-serif" font-weight="400" font-size="73" transform="matrix(1 0 0 1 5312.29 9447)">Input File<tspan font-size="73" x="-3.1626" y="88">(.txt, .</tspan><tspan font-size="73" x="181.889" y="88">dta</tspan><tspan font-size="73" x="283.869" y="88">, </tspan><tspan font-size="73" x="73.0352" y="176">.csv)</tspan></text><rect x="6421.5" y="9276.5" width="353" height="511" stroke="#1F497D" stroke-width="3.4375" stroke-linejoin="round" stroke-miterlimit="10" fill="#ECDE38"/><text font-family="Arial,Arial_MSFontService,sans-serif" font-weight="400" font-size="73" transform="matrix(1 0 0 1 6475.13 9514)">Layer 2<tspan font-size="73" x="22.6416" y="88">profile</tspan></text><rect x="6984.5" y="9150.5" width="497" height="714" stroke="#1F497D" stroke-width="3.4375" stroke-linejoin="round" stroke-miterlimit="10" fill="#F47920"/><text font-family="Arial,Arial_MSFontService,sans-serif" font-weight="400" font-size="73" transform="matrix(1 0 0 1 7121.95 9402)">Output <tspan font-size="73" x="-40.3789" y="88">container</tspan><tspan font-size="73" x="-83.6455" y="176">(Bagit: .jdx / </tspan><tspan font-size="73" x="20.625" y="264">.json)</tspan></text><rect x="5881.5" y="9281.5" width="353" height="511" stroke="#1F497D" stroke-width="3.4375" stroke-linejoin="round" stroke-miterlimit="10" fill="#ECDE38"/><text font-family="Arial,Arial_MSFontService,sans-serif" font-weight="400" font-size="73" transform="matrix(1 0 0 1 5935.5 9519)">Layer 1<tspan font-size="73" x="16.3394" y="88">reader</tspan></text><path d="M5720.5 9498.5 5784 9498.5 5784 9430.5 5847.5 9566.5 5784 9702.5 5784 9634.5 5720.5 9634.5Z" stroke="#D9D9D9" stroke-width="9.16667" stroke-miterlimit="8" fill="#D9D9D9" fill-rule="evenodd"/><path d="M6268.5 9506.5 6332 9506.5 6332 9438.5 6395.5 9574.5 6332 9710.5 6332 9642.5 6268.5 9642.5Z" stroke="#D9D9D9" stroke-width="9.16667" stroke-miterlimit="8" fill="#D9D9D9" fill-rule="evenodd"/><path d="M6822.5 9498.5 6886 9498.5 6886 9430.5 6949.5 9566.5 6886 9702.5 6886 9634.5 6822.5 9634.5Z" stroke="#D9D9D9" stroke-width="9.16667" stroke-miterlimit="8" fill="#D9D9D9" fill-rule="evenodd"/></g></svg>