<svg xmlns="http://www.w3.org/2000/svg" width="2237" height="717" overflow="hidden"><defs><clipPath id="a"><path d="M5254 9149h2237v717H5254z"/></clipPath></defs><g clip-path="url(#a)" transform="translate(-5254 -9149)"><path fill="#00ABC5" stroke="#1F497D" stroke-linejoin="round" stroke-miterlimit="10" stroke-width="3.438" d="M5255.5 9159.5h416v698h-416z"/><text font-family="Arial,Arial_MSFontService,sans-serif" font-size="73" font-weight="400" transform="translate(5312.29 9447)">Input File<tspan x="-3.163" y="88">(.txt, .</tspan><tspan x="181.889" y="88">dta</tspan><tspan x="283.869" y="88">, </tspan><tspan x="73.035" y="176">.csv)</tspan></text><path fill="#ECDE38" stroke="#1F497D" stroke-linejoin="round" stroke-miterlimit="10" stroke-width="3.438" d="M6421.5 9276.5h353v511h-353z"/><text font-family="Arial,Arial_MSFontService,sans-serif" font-size="73" font-weight="400" transform="translate(6475.13 9514)">Layer 2<tspan x="22.642" y="88">profile</tspan></text><path fill="#F47920" stroke="#1F497D" stroke-linejoin="round" stroke-miterlimit="10" stroke-width="3.438" d="M6984.5 9150.5h497v714h-497z"/><text font-family="Arial,Arial_MSFontService,sans-serif" font-size="73" font-weight="400" transform="translate(7121.95 9402)">Output <tspan x="-40.379" y="88">container</tspan><tspan x="-83.645" y="176">(Bagit: .jdx / </tspan><tspan x="20.625" y="264">.json)</tspan></text><path fill="#ECDE38" stroke="#1F497D" stroke-linejoin="round" stroke-miterlimit="10" stroke-width="3.438" d="M5881.5 9281.5h353v511h-353z"/><text font-family="Arial,Arial_MSFontService,sans-serif" font-size="73" font-weight="400" transform="translate(5935.5 9519)">Layer 1<tspan x="16.339" y="88">reader</tspan></text><path fill="#D9D9D9" fill-rule="evenodd" stroke="#D9D9D9" stroke-miterlimit="8" stroke-width="9.167" d="M5720.5 9498.5h63.5v-68l63.5 136-63.5 136v-68h-63.5Zm548 8h63.5v-68l63.5 136-63.5 136v-68h-63.5Zm554-8h63.5v-68l63.5 136-63.5 136v-68h-63.5Z"/></g></svg>