<svg xmlns="http://www.w3.org/2000/svg" width="120" height="42" version="1.0"><path d="M181.966.51 296.03.714c1.594 0 3.017-.236 3.017 3.181l-.14 37.567h-119.82V3.754c0-1.685.163-3.243 2.879-3.243" style="fill:#aab2ab" transform="matrix(.99377 0 0 .99367 -177.693 0)"/><path d="M117.752 0H2.247A2.25 2.25 0 0 0 0 2.246v39.247c0 .28.228.507.508.507h118.984c.28 0 .508-.227.508-.507V2.246A2.25 2.25 0 0 0 117.752 0M2.247 1.015h115.505c.68 0 1.233.552 1.233 1.231v27.276H36.16c-3.026 5.471-8.856 9.186-15.547 9.186-6.693 0-12.521-3.711-15.546-9.186H1.015V2.246c0-.679.553-1.231 1.232-1.231"/><path d="M253.078 32.956q.475 0 .87.084.391.084.673.275.28.191.434.508.154.318.154.784 0 .504-.229.84t-.678.55q.618.177.923.621t.305 1.07q0 .502-.197.873-.196.368-.528.601a2.3 2.3 0 0 1-.758.346 3.4 3.4 0 0 1-.875.112h-3.236v-6.664zm-.188 2.695q.393 0 .646-.186.252-.186.252-.605a.8.8 0 0 0-.084-.381.63.63 0 0 0-.225-.234 1 1 0 0 0-.322-.116 2 2 0 0 0-.378-.032h-1.374v1.554zm.086 2.828q.215 0 .411-.041.196-.044.347-.14a.7.7 0 0 0 .238-.267.9.9 0 0 0 .089-.428q0-.513-.29-.733-.29-.218-.767-.219h-1.6v1.828zm2.813-5.523h1.643l1.56 2.632 1.551-2.632h1.634l-2.473 4.106v2.558h-1.47v-2.595z" style="fill:#fff" transform="matrix(.99377 0 0 .99367 -177.693 0)"/><path d="M186.9-141.46c.006 8.68-7.027 15.721-15.707 15.727s-15.722-7.027-15.728-15.708v-.019c-.005-8.68 7.028-15.722 15.709-15.727 8.68-.005 15.722 7.028 15.727 15.709z" style="fill:#fff" transform="matrix(.86749 0 0 .8674 -127.88 142.308)"/><path d="M31.703 8.502q4.536 4.535 4.536 11.104 0 6.57-4.458 10.988-4.73 4.653-11.181 4.653-6.373 0-10.987-4.614T5 19.606 9.613 8.502Q14.11 3.965 20.6 3.965q6.57 0 11.103 4.537M11.65 10.535q-3.835 3.872-3.834 9.075t3.794 8.996q3.795 3.794 9.037 3.794t9.114-3.832q3.678-3.56 3.678-8.958 0-5.358-3.737-9.094-3.735-3.735-9.055-3.735t-8.997 3.754m6.727 7.55q-.586-1.278-1.756-1.278-2.067 0-2.067 2.784t2.067 2.783q1.366 0 1.951-1.357l1.911 1.017q-1.365 2.427-4.1 2.427-2.107 0-3.376-1.291-1.269-1.293-1.269-3.564 0-2.232 1.308-3.543 1.308-1.312 3.26-1.312 2.888 0 4.139 2.275zm8.99 0q-.588-1.278-1.72-1.278-2.11 0-2.11 2.784t2.11 2.783q1.368 0 1.915-1.357l1.953 1.017q-1.365 2.427-4.092 2.427-2.105 0-3.372-1.291-1.265-1.293-1.266-3.564 0-2.232 1.287-3.543 1.285-1.312 3.273-1.312 2.885 0 4.13 2.275z"/><g transform="matrix(.99377 0 0 .99367 -177.693 0)"><circle cx="255.551" cy="15.313" r="10.807" style="fill:#fff"/><path d="M258.678 12.187a.754.754 0 0 0-.753-.754h-4.773a.754.754 0 0 0-.753.754v4.773h1.33v5.652h3.618V16.96h1.331z"/><circle cx="255.539" cy="9.172" r="1.633"/><path d="M255.524 3.407q-4.85 0-8.208 3.384-3.446 3.501-3.446 8.285 0 4.783 3.446 8.226 3.447 3.442 8.208 3.442 4.82 0 8.353-3.471 3.33-3.296 3.33-8.197 0-4.902-3.387-8.285-3.39-3.384-8.296-3.384m.03 2.1q3.972 0 6.746 2.801 2.804 2.77 2.804 6.768 0 4.025-2.745 6.68-2.892 2.859-6.806 2.859-3.916 0-6.747-2.83-2.834-2.83-2.833-6.71t2.862-6.767q2.745-2.8 6.718-2.801" clip-rule="evenodd" style="fill-rule:evenodd"/></g></svg>