<svg xmlns="http://www.w3.org/2000/svg" width="120" height="42" version="1.0"><path d="m182.235 75.39 114.064.203c1.594 0 3.018-.237 3.018 3.18l-.14 37.567h-119.82V78.634c0-1.685.163-3.244 2.878-3.244" style="fill:#aab2ab" transform="matrix(.99378 0 0 .99367 -177.694 -74.436)"/><path d="M187.21-55.68c.005 8.681-7.028 15.722-15.709 15.728-8.68.005-15.722-7.028-15.727-15.708v-.02c-.005-8.68 7.028-15.721 15.708-15.726 8.682-.006 15.722 7.028 15.727 15.708z" style="fill:#fff" transform="matrix(.8675 0 0 .8674 -127.88 67.871)"/><path d="M31.971 8.47q4.536 4.536 4.536 11.105t-4.458 10.988q-4.73 4.653-11.181 4.653-6.374 0-10.987-4.614T5.267 19.575 9.881 8.47q4.496-4.535 10.987-4.535 6.57 0 11.103 4.535m-20.054 2.034q-3.835 3.872-3.834 9.075t3.794 8.996q3.795 3.794 9.037 3.794t9.114-3.833q3.678-3.559 3.678-8.957 0-5.358-3.737-9.094-3.735-3.735-9.055-3.735t-8.997 3.754m6.727 7.55q-.586-1.278-1.756-1.278-2.067 0-2.067 2.783t2.067 2.784q1.366 0 1.951-1.358l1.911 1.018q-1.365 2.428-4.1 2.428-2.107 0-3.376-1.292t-1.269-3.563q0-2.233 1.308-3.544 1.308-1.312 3.26-1.312 2.888 0 4.139 2.275zm8.99 0q-.587-1.278-1.72-1.278-2.11 0-2.11 2.783t2.11 2.784q1.368 0 1.915-1.358l1.953 1.018q-1.364 2.428-4.092 2.428-2.105 0-3.372-1.292-1.265-1.293-1.266-3.563 0-2.233 1.287-3.544 1.285-1.312 3.273-1.312 2.885 0 4.13 2.275z"/><path d="M117.753 0H2.247A2.25 2.25 0 0 0 0 2.247v39.245c0 .28.227.508.507.508h118.985c.28 0 .508-.228.508-.508V2.247A2.25 2.25 0 0 0 117.753 0M2.247 1.015h115.506c.68 0 1.232.553 1.232 1.232v27.245H36.428c-3.026 5.47-8.856 9.185-15.546 9.185-6.694 0-12.522-3.711-15.547-9.185h-4.32V2.247c0-.68.552-1.232 1.232-1.232"/><path d="M265.61 112.883q.12.234.321.379.2.145.47.214.27.07.56.07.195 0 .418-.032.223-.033.42-.126a.9.9 0 0 0 .325-.257.64.64 0 0 0 .13-.416.6.6 0 0 0-.172-.438 1.4 1.4 0 0 0-.453-.28 5 5 0 0 0-.632-.196 17 17 0 0 1-.718-.187 6 6 0 0 1-.728-.229 2.5 2.5 0 0 1-.633-.35 1.65 1.65 0 0 1-.453-.536 1.64 1.64 0 0 1-.172-.78q0-.514.22-.891a2 2 0 0 1 .573-.63q.354-.253.802-.374.447-.12.895-.121.522 0 1.003.117.48.116.852.378.374.262.593.668t.219.986h-1.422a1.2 1.2 0 0 0-.125-.495.83.83 0 0 0-.283-.309 1.2 1.2 0 0 0-.405-.158 2.5 2.5 0 0 0-.497-.047 1.7 1.7 0 0 0-.352.037 1 1 0 0 0-.32.131.8.8 0 0 0-.238.234.63.63 0 0 0-.093.355q0 .195.075.317t.294.224.605.206q.387.102 1.012.26.186.038.516.137.331.098.658.312.325.216.564.574.237.36.237.92 0 .458-.177.85a1.84 1.84 0 0 1-.528.677 2.5 2.5 0 0 1-.867.444 4.1 4.1 0 0 1-1.2.158q-.55 0-1.069-.136a2.7 2.7 0 0 1-.915-.425 2.1 2.1 0 0 1-.63-.74q-.232-.447-.223-1.064h1.422q0 .336.12.57m8.258-5.017 2.493 6.664h-1.523l-.504-1.485h-2.493l-.522 1.485h-1.475l2.52-6.664zm.084 4.086-.84-2.444h-.019l-.869 2.444zm-34.773-4.086q.477 0 .87.084.392.084.673.275.28.192.435.508.154.318.154.784 0 .503-.23.84-.228.336-.677.55.618.177.923.62.304.445.304 1.07 0 .504-.196.873a1.7 1.7 0 0 1-.528.602 2.3 2.3 0 0 1-.758.345 3.4 3.4 0 0 1-.875.113h-3.236v-6.664zm-.187 2.695q.391 0 .645-.186.252-.187.252-.605a.8.8 0 0 0-.084-.382.6.6 0 0 0-.224-.233 1 1 0 0 0-.323-.116 2 2 0 0 0-.379-.033h-1.373v1.555zm.086 2.828q.215 0 .41-.042.198-.042.347-.14a.7.7 0 0 0 .239-.266.9.9 0 0 0 .089-.429q0-.513-.29-.732-.291-.219-.767-.219h-1.6v1.828zm2.813-5.523h1.643l1.56 2.632 1.551-2.632h1.634l-2.474 4.106v2.558h-1.469v-2.595z" style="fill:#fff" transform="matrix(.99378 0 0 .99367 -177.694 -74.436)"/><path d="M-175.008-139.115c.006 9.412-7.618 17.047-17.03 17.055-9.411.007-17.047-7.618-17.055-17.03v-.025c-.006-9.413 7.619-17.047 17.03-17.055s17.048 7.618 17.055 17.03z" style="fill:#fff" transform="matrix(.6211 0 0 .62104 211.102 101.377)"/><path d="M91.742 3.386q-4.817 0-8.156 3.362-3.425 3.48-3.425 8.233t3.425 8.174 8.156 3.42q4.789 0 8.303-3.449 3.308-3.275 3.308-8.145t-3.367-8.233-8.244-3.362m.03 2.087q3.946 0 6.705 2.783 2.786 2.754 2.786 6.725 0 4-2.728 6.638-2.874 2.84-6.764 2.84t-6.705-2.81q-2.815-2.814-2.815-6.668t2.844-6.725q2.729-2.783 6.676-2.783"/><path d="M86.603 13.344c.462-2.917 2.516-4.477 5.09-4.477 3.702 0 5.958 2.686 5.958 6.268 0 3.495-2.4 6.21-6.016 6.21-2.488 0-4.714-1.53-5.12-4.534h2.921c.088 1.56 1.1 2.108 2.546 2.108 1.648 0 2.72-1.53 2.72-3.87 0-2.455-.927-3.755-2.663-3.755-1.272 0-2.37.462-2.603 2.05l.85-.004-2.3 2.299-2.299-2.3z"/><g transform="matrix(.99378 0 0 .99367 -177.694 -74.436)"><circle cx="242.562" cy="90.225" r="10.806" style="fill:#fff"/><path d="M245.69 87.098a.754.754 0 0 0-.754-.754h-4.772a.754.754 0 0 0-.754.754v4.773h1.33v5.652h3.618V91.87h1.332z"/><circle cx="242.55" cy="84.083" r="1.632"/><path d="M242.535 78.318q-4.849 0-8.208 3.384-3.446 3.5-3.446 8.284t3.446 8.227 8.208 3.442q4.82 0 8.353-3.471 3.33-3.296 3.33-8.198 0-4.9-3.387-8.284-3.39-3.384-8.296-3.384m.029 2.1q3.972 0 6.747 2.8 2.805 2.772 2.805 6.768 0 4.026-2.746 6.681-2.892 2.859-6.806 2.858-3.914.001-6.747-2.83-2.834-2.828-2.833-6.709t2.862-6.767q2.746-2.8 6.718-2.801" clip-rule="evenodd" style="fill-rule:evenodd"/></g></svg>