<svg xmlns="http://www.w3.org/2000/svg" xml:space="preserve" width="88" height="31" viewBox="-0.5 -0.101 88 31"><path fill="#FFF" d="M1.803.482 84.93.631c1.161 0 2.198-.173 2.198 2.333l-.103 27.556H-.295V2.862c0-1.236.118-2.38 2.098-2.38"/><ellipse cx="13.887" cy="15.502" fill="#FFF" rx="11.101" ry="11.174"/><path d="M23.271 4.061a14.23 14.23 0 0 1 5.755 11.44 14.23 14.23 0 0 1-4.842 10.705h62.853V4.061z"/><path fill="#FFF" d="M35.739 7.559q.59.001 1.002.173.413.174.674.456.26.284.379.647.118.364.118.753 0 .38-.118.749-.12.367-.379.65a1.9 1.9 0 0 1-.674.456q-.413.172-1.002.173h-1.452v2.267h-1.382V7.559zm-.379 2.976q.238 0 .457-.035t.388-.137.269-.288c.101-.186.101-.287.101-.487q0-.3-.101-.487a.73.73 0 0 0-.269-.287 1.1 1.1 0 0 0-.388-.138 3 3 0 0 0-.457-.036h-1.073v1.896zm8.391 2.865q-.714.625-1.972.625-1.276 0-1.976-.62-.699-.62-.699-1.913V7.559h1.381v3.934q0 .255.045.505.044.247.185.439.141.189.392.309t.673.12q.74 0 1.021-.332.282-.332.282-1.04V7.559h1.382v3.934q0 1.282-.714 1.907m5.319-5.841q.45 0 .818.081.367.08.633.261.264.182.41.482.145.302.146.745 0 .477-.216.796a1.6 1.6 0 0 1-.639.523q.581.17.865.589.285.422.286 1.015 0 .479-.187.828a1.6 1.6 0 0 1-.496.571 2.2 2.2 0 0 1-.713.327 3.2 3.2 0 0 1-.822.105h-3.047V7.559zm-.175 2.56q.369 0 .607-.178.236-.176.236-.576a.74.74 0 0 0-.078-.363.6.6 0 0 0-.211-.221.9.9 0 0 0-.305-.109 2 2 0 0 0-.355-.032h-1.294v1.48zm.08 2.685q.203 0 .387-.04a1 1 0 0 0 .326-.133.7.7 0 0 0 .226-.254.86.86 0 0 0 .083-.406q-.001-.487-.271-.695-.274-.207-.723-.208h-1.505v1.738h1.479v-.002zm5.168-5.245v5.156h3.062v1.168H52.76V7.559zm5.605 0v6.324h-1.382V7.559zm5.703 1.688a1.4 1.4 0 0 0-.309-.349 1.4 1.4 0 0 0-.418-.236 1.4 1.4 0 0 0-.488-.084q-.466 0-.793.183-.327.18-.525.486a2.2 2.2 0 0 0-.296.695 3.45 3.45 0 0 0 0 1.582q.092.377.296.678c.134.201.312.361.525.483q.327.18.793.181.635 0 .99-.389.355-.39.437-1.028H67a3.2 3.2 0 0 1-.271 1.072 2.6 2.6 0 0 1-.582.815 2.4 2.4 0 0 1-.845.513 3 3 0 0 1-1.065.178c-.479 0-.914-.084-1.297-.252a2.8 2.8 0 0 1-.973-.695 3 3 0 0 1-.607-1.04 3.8 3.8 0 0 1-.211-1.289q-.001-.709.211-1.316a3.2 3.2 0 0 1 .607-1.059 2.8 2.8 0 0 1 .973-.708 3.1 3.1 0 0 1 1.297-.258q.523 0 .981.15.462.153.827.44.363.288.604.712.237.425.301.975h-1.34a1.1 1.1 0 0 0-.159-.44m-29.836 7.171q.608-.002 1.131.192.524.194.906.585.383.39.599.975.216.587.216 1.371 0 .694-.176 1.277a2.85 2.85 0 0 1-.532 1.012 2.54 2.54 0 0 1-.89.668q-.531.241-1.254.242h-2.71v-6.322zm-.096 5.154q.299.001.581-.098a1.26 1.26 0 0 0 .502-.323q.22-.226.352-.59.132-.361.132-.886 0-.477-.093-.863a1.7 1.7 0 0 0-.304-.659 1.35 1.35 0 0 0-.559-.421q-.347-.146-.858-.146h-.984v3.986zm4.281-3.283q.212-.605.606-1.059.397-.454.973-.709a3.2 3.2 0 0 1 1.298-.257q.73 0 1.303.257.572.255.969.709c.264.303.466.652.605 1.059q.214.608.213 1.316 0 .691-.213 1.288a3.2 3.2 0 0 1-.605 1.04 2.8 2.8 0 0 1-.969.695 3.2 3.2 0 0 1-1.303.252q-.721-.001-1.298-.252a2.8 2.8 0 0 1-.973-.695 3.1 3.1 0 0 1-.606-1.04 3.9 3.9 0 0 1-.211-1.288q0-.708.211-1.316m1.262 2.09q.093.378.295.68.203.299.527.482.326.182.792.183a1.6 1.6 0 0 0 .792-.183q.327-.181.529-.482.2-.301.295-.68.092-.375.092-.774 0-.416-.092-.806a2.2 2.2 0 0 0-.295-.696 1.5 1.5 0 0 0-.529-.485 1.6 1.6 0 0 0-.792-.184q-.466 0-.792.184-.325.182-.527.485a2.2 2.2 0 0 0-.295.696 3.45 3.45 0 0 0 0 1.58m8.03-3.961 1.471 4.348h.02l1.393-4.348h1.942v6.322h-1.294v-4.48h-.02l-1.539 4.48H50l-1.54-4.437h-.019v4.437h-1.293v-6.322zm9.672 0 2.35 6.322H59.68l-.476-1.408h-2.351l-.492 1.408H54.97l2.377-6.322zm.08 3.879-.793-2.322h-.018l-.817 2.322zm4.703-3.879v6.322h-1.382v-6.322zm3.057 0 2.623 4.242h.018v-4.242h1.294v6.322h-1.384l-2.611-4.234h-.02v4.234H65.23v-6.322z"/><path d="M85.852 0H1.147C.239 0-.5.744-.5 1.658v28.969c0 .207.167.373.372.373h87.256a.37.37 0 0 0 .372-.373V1.658C87.5.744 86.762 0 85.852 0M1.147.75h84.705c.498 0 .902.406.902.908v28.557H.245V1.658c0-.501.405-.908.902-.908"/><ellipse cx="14.156" cy="15.661" fill="#FFF" rx="11.004" ry="11.076"/><path d="M14.22 8.746c-3.862 0-4.834 3.669-4.834 6.779 0 3.111.971 6.779 4.834 6.779s4.834-3.67 4.834-6.779c0-3.111-.971-6.779-4.834-6.779m0 2.555c.157 0 .3.024.435.06.278.24.414.573.147 1.038l-2.572 4.76a13 13 0 0 1-.091-1.634c0-1.37.094-4.224 2.081-4.224m1.926 2.193c.137.731.155 1.493.155 2.03 0 1.37-.094 4.223-2.08 4.223q-.234 0-.435-.049l-.074-.025c-.04-.012-.084-.024-.122-.041-.442-.188-.721-.531-.319-1.139z"/><path d="M14.195 3.748c-3.245 0-5.98 1.137-8.21 3.422a12 12 0 0 0-2.589 3.876 11.7 11.7 0 0 0-.876 4.478q0 2.354.876 4.479c.876 2.125 1.434 2.69 2.548 3.826a12.2 12.2 0 0 0 3.802 2.588q2.13.884 4.449.884c1.547 0 3.05-.304 4.499-.907a12.1 12.1 0 0 0 3.883-2.605 10.7 10.7 0 0 0 2.49-3.719q.855-2.124.853-4.544c0-1.598-.281-3.112-.852-4.528a11.3 11.3 0 0 0-2.507-3.801c-2.298-2.302-5.092-3.449-8.366-3.449m.049 2.119c2.646 0 4.904.944 6.784 2.836a9.4 9.4 0 0 1 2.073 3.119 9.7 9.7 0 0 1 .713 3.703c0 2.707-.92 4.952-2.744 6.746a10 10 0 0 1-3.196 2.128 9.3 9.3 0 0 1-3.63.732 9.4 9.4 0 0 1-3.638-.717 9.8 9.8 0 0 1-3.113-2.104 10 10 0 0 1-2.13-3.135 9.5 9.5 0 0 1-.738-3.653 9.4 9.4 0 0 1 .738-3.662 10.3 10.3 0 0 1 2.13-3.175c1.824-1.876 4.077-2.818 6.751-2.818"/></svg>