<svg xmlns="http://www.w3.org/2000/svg" width="60.947" height="60.946"><defs><clipPath id="b" clipPathUnits="userSpaceOnUse"><path d="M400.937 355.84h33.154v-38.933h-33.154z"/></clipPath><clipPath id="a" clipPathUnits="userSpaceOnUse"><path d="M377.1 379.684h73.072v-86.619H377.1Z"/></clipPath></defs><g transform="translate(-1.83 -1.601)"><circle cx="32.166" cy="31.964" r="30.48" style="fill:#fff;fill-opacity:1" transform="translate(.4 .399)scale(.99362)"/><g style="display:inline"><g clip-path="url(#a)" style="opacity:.89999402" transform="matrix(.48708 0 0 -.48708 -172.383 195.916)"><path d="M0 0c-19.759 0-35.843 16.083-35.843 35.852 0 19.77 16.084 35.854 35.843 35.854 9.178 0 17.826-3.427 24.499-9.669l5.274 5.272C21.699 74.957 11.174 79.157 0 79.157c-23.874 0-43.299-19.426-43.299-43.307S-23.874-7.461 0-7.461c11.178 0 21.699 4.197 29.768 11.847l-5.282 5.273C17.83 3.422 9.18 0 0 0" style="fill:#2495cf;fill-opacity:1;fill-rule:nonzero;stroke:none" transform="translate(420.398 300.526)"/></g></g><g style="display:inline"><g clip-path="url(#b)" style="opacity:.89999402" transform="matrix(.48708 0 0 -.48708 -172.383 195.916)"><path d="M0 0a15.1 15.1 0 0 0-10.641-4.375c-8.363 0-15.142 6.785-15.142 15.157 0 8.367 6.779 15.151 15.142 15.151 4.151 0 7.911-1.671 10.641-4.375l3.052 3.053c-3.525 3.483-8.36 5.635-13.693 5.635-10.742 0-19.462-8.717-19.462-19.464 0-10.751 8.72-19.47 19.462-19.47 5.333 0 10.168 2.159 13.693 5.645z" style="fill:#ee474e;fill-opacity:1;fill-rule:nonzero;stroke:none" transform="translate(431.04 325.594)"/></g></g><g style="display:inline"><path d="M0 0c-8.555 0-16.306-3.486-21.896-9.117l4.843-4.839C-12.705-9.57-6.669-6.842 0-6.842c13.288 0 24.046-10.757 24.046-24.036 0-13.276-10.758-24.041-24.046-24.041a23.92 23.92 0 0 0-17.053 7.121l-4.843-4.838C-16.302-58.269-8.555-61.757 0-61.757c17.064 0 30.885 13.825 30.885 30.879C30.885-13.821 17.064 0 0 0" style="fill:#d8e037;fill-opacity:1;fill-rule:nonzero;stroke:none" transform="matrix(.48708 0 0 -.48708 32.385 17.033)"/></g><path d="M32.304 58.477C17.72 58.477 5.9 46.655 5.9 32.074c0-14.582 11.82-26.402 26.403-26.402s26.403 11.82 26.403 26.402c0 14.581-11.821 26.403-26.403 26.403m0-56.876c-16.83 0-30.474 13.643-30.474 30.473s13.644 30.473 30.475 30.473c16.83 0 30.472-13.642 30.472-30.473 0-16.83-13.643-30.473-30.472-30.473" style="display:inline;fill:#4f5659;fill-opacity:1;fill-rule:nonzero;stroke:none"/></g></svg>