<svg xmlns="http://www.w3.org/2000/svg" width="1000" height="500" version="1.0"><path fill-rule="evenodd" d="M984.51 25.416H753.997v78.511h67.398v270.667h95.719V103.927h67.397zM731.053 374.235h-95.719V25.416h95.72zm-111.851 0H512.727l-126.55-135.87V160.57L508.783 25.057h109.7L477.237 200.722zM363.233 374.235"/><path fill="#32a189" fill-rule="evenodd" d="M90.416 153.041c-18.284 22.228-34.057 46.605-46.247 72.776l319.064 148.418zM363.233 374.235 214.456 57.68q-39.793 18.284-73.133 45.17z"/><path fill-rule="evenodd" d="m363.233 374.235.358-348.819h-2.867c-28.322 0-55.926 3.585-82.455 10.038zM363.233 374.235"/><path fill="#32a189" fill-rule="evenodd" d="M21.226 288.912c-7.17 27.247-10.755 55.926-11.114 85.323h353.12z"/><path d="M989.331 452.778c-1.442 1.192-5.956 3.198-9.843 3.198-5.581 0-10.533-4.326-10.533-10.658h22.821c0-10.284-3.449-18.058-14.107-18.058-9.028 0-14.985 6.71-14.985 16.177 0 10.408 5.204 17.315 16.553 17.315 5.265 0 7.837-1.265 10.094-2.08zm-20.376-11.849c.438-4.138 2.82-8.903 8.59-8.903 5.078 0 7.961 4.012 7.961 8.903zm-19.073 19.06h5.894v-31.977h-5.894zm6.27-45.77h-6.646v6.646h6.646zm-376.419 1.388h6.551v6.677h-6.55zm14.013 0h6.551v6.677h-6.55zm18.772 44.381h5.893v-14.545c0-8.025 3.449-13.041 8.715-13.041 1.003 0 2.195.125 3.26.564V427.7c-1.253-.252-2.132-.44-3.886-.44-3.387 0-6.773 2.383-8.34 5.706h-.125v-4.954h-5.517zm-8.365-32.74h-5.893v14.797c0 7.775-3.009 13.168-9.719 13.168-5.14-.314-6.77-3.95-6.77-11.411v-16.554h-5.894v18.999c0 8.59 3.699 13.741 11.976 13.741 4.45 0 8.715-2.204 10.47-5.842h.126v5.079h5.704zM286.4 459.988h5.893v-14.545c0-8.025 3.449-13.041 8.715-13.041 1.004 0 2.195.125 3.261.564V427.7c-1.254-.252-2.133-.44-3.887-.44-3.386 0-6.773 2.383-8.34 5.706h-.125v-4.954H286.4zm654.981-31.976h-5.455v4.766h-.125c-1.755-3.448-4.89-5.518-10.533-5.518-9.656 0-14.296 8.778-14.296 16.992 0 8.275 4.515 15.736 13.67 15.736 4.074 0 8.213-1.63 10.72-4.952h.126v3.135c0 6.782-3.7 10.983-9.906 10.983-4.326 0-7.023-.816-11.537-2.885l-.627 5.455c5.141 1.756 8.087 2.195 11.474 2.195 11.474 0 16.489-5.581 16.489-15.31zm-15.236 27.211c-5.517 0-8.901-5.266-8.901-11.285 0-5.455 2.946-11.912 8.901-11.912 6.27 0 9.343 5.705 9.343 12.35 0 5.958-3.824 10.847-9.343 10.847M872.664 444c0 9.155 6.646 16.752 16.302 16.752 9.593 0 16.24-7.597 16.24-16.752 0-9.718-6.522-16.74-16.24-16.74-9.781 0-16.302 7.022-16.302 16.74m6.271 0c0-6.08 3.698-11.974 10.03-11.974 6.27 0 9.97 5.893 9.97 11.974 0 5.706-3.072 11.976-9.97 11.976-6.959 0-10.03-6.27-10.03-11.976m-20.817 15.988h5.894v-47.023h-5.894zM816.925 444c0 9.155 6.646 16.752 16.302 16.752 9.593 0 16.24-7.597 16.24-16.752 0-9.718-6.522-16.74-16.24-16.74-9.781 0-16.302 7.022-16.302 16.74m6.271 0c0-6.08 3.698-11.974 10.03-11.974 6.27 0 9.97 5.893 9.97 11.974 0 5.706-3.072 11.976-9.97 11.976-6.959 0-10.03-6.27-10.03-11.976m-42.447 15.988h5.894v-14.797c0-7.773 3.01-13.165 9.718-13.165 5.141.312 6.77 3.95 6.77 11.41v16.552h5.894v-18.996c0-8.59-3.698-13.732-11.974-13.732-4.452 0-8.716 2.195-10.47 5.83h-.126v-5.078h-5.706zm-38.308 0h5.893v-14.797c0-7.773 3.01-13.165 9.719-13.165 5.14.312 6.77 3.95 6.77 11.41v16.552h5.894v-18.996c0-8.59-3.698-13.732-11.974-13.732-4.453 0-8.151 1.943-10.284 5.33h-.124v-19.625h-5.894zm-7.022-31.473c-1.693-.69-4.765-1.255-7.148-1.255-9.78 0-16.301 7.022-16.301 16.74 0 9.155 6.645 16.752 16.301 16.752 2.132 0 4.954-.19 7.399-1.327l-.439-5.266c-1.818 1.191-4.326 1.817-6.332 1.817-7.587 0-10.66-6.27-10.66-11.976 0-6.08 3.7-11.974 10.284-11.974 1.88 0 4.137.438 6.394 1.378zm-31.162 24.263c-1.442 1.192-5.956 3.198-9.843 3.198-5.581 0-10.533-4.326-10.533-10.658h22.821c0-10.284-3.448-18.058-14.106-18.058-9.029 0-14.986 6.71-14.986 16.177 0 10.408 5.205 17.315 16.553 17.315 5.266 0 7.837-1.265 10.094-2.08zm-20.376-11.849c.439-4.138 2.82-8.903 8.59-8.903 5.078 0 7.962 4.012 7.962 8.903zm-25.08 19.06h6.27v-38.247h13.605v-5.517h-33.481v5.517H658.8zm-104.329 0h5.894v-27.21h8.464v-4.767h-8.464v-3.447c0-4.328.626-7.587 5.704-7.587 1.004 0 2.133.124 2.823.376l.25-4.765c-1.191-.189-2.445-.376-3.95-.376-8.714 0-10.72 5.078-10.72 12.853v2.946h-7.526v4.766h7.525zm-27.064-31.977h-8.465v-9.278l-5.894 1.88v7.398h-7.21v4.766h7.21v18.685c0 6.394 3.762 9.289 9.844 9.289 1.88 0 3.698-.501 5.016-.889v-5.016c-.878.565-2.195 1.129-4.014 1.129-2.695 0-4.952-2.006-4.952-5.705v-17.493h8.465zm-27.024 0h-5.894v14.797c0 7.775-3.008 13.167-9.718 13.167-5.141-.314-6.771-3.95-6.771-11.41v-16.554h-5.894v18.998c0 8.59 3.699 13.742 11.976 13.742 4.451 0 8.715-2.205 10.471-5.842h.125v5.078h5.705zm-35.675 0h-8.465v-9.278l-5.893 1.88v7.398h-7.211v4.766h7.21v18.685c0 6.394 3.762 9.289 9.844 9.289 1.881 0 3.699-.501 5.016-.889v-5.016c-.877.565-2.195 1.129-4.014 1.129-2.694 0-4.952-2.006-4.952-5.705v-17.493h8.465zm-33.67 31.976h5.894v-31.976h-5.894zm6.27-45.77h-6.646v6.647h6.646zm-14.42 13.794h-8.465v-9.278l-5.894 1.88v7.398h-7.211v4.766h7.211v18.685c0 6.394 3.76 9.289 9.843 9.289 1.882 0 3.699-.501 5.016-.889v-5.016c-.877.565-2.194 1.129-4.013 1.129-2.695 0-4.952-2.006-4.952-5.705v-17.493h8.464zm-44.079 30.974c2.696 1.452 5.769 1.766 8.777 1.766 5.706 0 11.16-3.146 11.16-9.98 0-10.22-13.855-8.34-13.855-14.86 0-2.633 2.632-3.886 5.642-3.886 1.38 0 4.892.815 6.208 1.63l.5-5.141c-2.32-.69-4.575-1.255-7.335-1.255-6.332 0-11.286 3.198-11.286 9.844 0 8.966 13.857 8.463 13.857 14.295 0 3.448-3.322 4.577-6.018 4.577-1.694 0-5.016-.753-7.336-2.258zm-35.612 1.002h5.893v-14.797c0-7.773 3.01-13.165 9.719-13.165 5.14.312 6.77 3.95 6.77 11.41v16.552h5.894v-18.996c0-8.59-3.699-13.732-11.974-13.732-4.453 0-8.716 2.195-10.471 5.83h-.125v-5.078h-5.706zm-16.867 0h6.27v-43.763h-6.27zm-51.948-7.21c-1.443 1.192-5.956 3.198-9.844 3.198-5.58 0-10.533-4.326-10.533-10.658h22.822c0-10.284-3.449-18.058-14.107-18.058-9.029 0-14.986 6.71-14.986 16.177 0 10.408 5.205 17.315 16.553 17.315 5.266 0 7.837-1.265 10.095-2.08zm-20.377-11.849c.439-4.138 2.821-8.903 8.59-8.903 5.078 0 7.962 4.012 7.962 8.903zm-42.447 19.06h5.894V445.19c0-7.773 3.01-13.165 9.718-13.165 5.141.312 6.77 3.95 6.77 11.41v16.552h5.894v-18.996c0-8.59-3.698-13.732-11.974-13.732-4.452 0-8.15 1.943-10.283 5.33h-.125v-19.625h-5.894zm-10.032-31.977h-5.893v14.797c0 7.775-3.009 13.167-9.719 13.167-5.14-.314-6.77-3.95-6.77-11.41v-16.554h-5.894v18.998c0 8.59 3.698 13.742 11.976 13.742 4.45 0 8.714-2.205 10.47-5.842h.125v5.078h5.705zm-52.667 31.976h5.894v-14.545c0-8.025 3.449-13.041 8.715-13.041 1.003 0 2.195.125 3.26.564V427.7c-1.253-.252-2.132-.44-3.886-.44-3.387 0-6.773 2.383-8.34 5.706h-.125v-4.954h-5.518zm-27.086-1.002c2.696 1.452 5.769 1.766 8.777 1.766 5.706 0 11.161-3.146 11.161-9.98 0-10.22-13.856-8.34-13.856-14.86 0-2.633 2.633-3.886 5.643-3.886 1.38 0 4.89.815 6.207 1.63l.501-5.141c-2.32-.69-4.576-1.255-7.336-1.255-6.332 0-11.286 3.198-11.286 9.844 0 8.966 13.857 8.463 13.857 14.295 0 3.448-3.322 4.577-6.018 4.577-1.694 0-5.016-.753-7.336-2.258zm-13.982 1.002h5.894v-47.023h-5.894zm-25.143 0h5.894v-14.545c0-8.025 3.449-13.041 8.714-13.041 1.004 0 2.195.125 3.262.564V427.7c-1.254-.252-2.133-.44-3.888-.44-3.386 0-6.772 2.383-8.34 5.706h-.124v-4.954h-5.518zm-33.042-24.703c2.382-2.006 5.956-3.26 9.278-3.26 5.895 0 7.901 2.822 7.901 8.34-2.32-.126-3.95-.126-6.27-.126-6.082 0-14.86 2.507-14.86 10.534 0 6.96 4.828 9.979 11.726 9.979 5.39 0 8.526-2.957 9.905-4.9h.125v4.136h5.518c-.125-.94-.25-2.632-.25-6.27V440.49c0-8.714-3.7-13.23-12.854-13.23-4.076 0-7.587 1.256-10.533 3.01zm17.18 12.29c0 4.765-3.073 8.401-8.904 8.401-2.696 0-5.956-1.817-5.956-5.203 0-5.644 7.9-6.145 11.097-6.145 1.254 0 2.507.125 3.762.125zm-59.94 12.413h6.27v-21.443l19.498 21.443h9.155l-22.195-23.072 20.565-20.69H31.8l-18.684 19.248v-19.249h-6.27z"/></svg>