<svg xmlns="http://www.w3.org/2000/svg" width="381.525" height="76.434"><g data-name="Gruppe 469"><path fill="#009cbd" d="m33.058 56.102 15.465-8.931V29.315l-15.465-8.927-15.466 8.927v17.858Z" data-name="Pfad 2157"/><path fill="#2b2e34" d="M33.056 17.182V0L0 19.084v38.243l10.96 6.335a4 4 0 0 0-.024.395 3.5 3.5 0 1 0 1.416-2.8l-9.571-5.534v-35.04l27.5-15.88v13.983Z" data-name="Pfad 2158"/><path fill="#2b2e34" d="m66.109 19.106-10.957-6.334a4 4 0 0 0 .024-.4 3.48 3.48 0 0 0-1.022-2.466 3.486 3.486 0 0 0-4.931 0 3.5 3.5 0 0 0-1.022 2.468 3.5 3.5 0 0 0 1.023 2.464 3.48 3.48 0 0 0 2.465 1.023 3.5 3.5 0 0 0 2.071-.686l9.571 5.53v35.04l-27.5 15.88V57.647l-2.777 1.6v17.186l33.058-19.084Z" data-name="Pfad 2159"/><path fill="#2b2e34" d="M113.409 46.686h-.166l-3.957-7.98L97.73 19.015h-7.975v38.4h6.877V29.743h.163l3.961 7.975 11.552 19.7h7.978v-38.4h-6.877Z" data-name="Pfad 2161"/><path fill="#2b2e34" d="M129.308 57.416h7.262v-16.01h15.184V34.97H136.57v-9.516h17.438v-6.437h-24.7Z" data-name="Pfad 2162"/><path fill="#2b2e34" d="M187.043 23.83a13.8 13.8 0 0 0-5.225-3.6 18.4 18.4 0 0 0-6.794-1.213h-13.976v38.4h13.976a18.3 18.3 0 0 0 6.794-1.21 13.9 13.9 0 0 0 5.225-3.6 16.4 16.4 0 0 0 3.355-6 26.9 26.9 0 0 0 1.184-8.39 26.9 26.9 0 0 0-1.184-8.387 16.4 16.4 0 0 0-3.355-6m-3.161 17.411q0 4.95-2.4 7.345a8.73 8.73 0 0 1-6.462 2.393h-6.707V25.454h6.711a8.73 8.73 0 0 1 6.462 2.393q2.395 2.389 2.4 7.345Z" data-name="Pfad 2163"/><path fill="#2b2e34" d="M214.794 24.847v-5.831h-17.436v5.831h5.059v26.737h-5.059v5.831h17.436v-5.831h-5.112V24.847Z" data-name="Pfad 2165"/><path fill="#009cbd" d="M232.919 61.7v-4.3h-9.843v-4.104l8.723-13.983h5.707v14.371h2.826v3.719h-2.826v4.3Zm-6-8.016h6v-9.4h-.32Z" data-name="Pfad 2166"/><path fill="#2b2e34" d="M268.145 53.208a10.37 10.37 0 0 1-6.437 1.953 10.2 10.2 0 0 1-8.415-3.754q-3.028-3.75-3.026-10.873v-4.36q0-7.173 3.026-11.036a10.08 10.08 0 0 1 8.415-3.864 10.3 10.3 0 0 1 6.192 1.842 11.1 11.1 0 0 1 3.825 4.979l2.694-1.6a14.43 14.43 0 0 0-4.924-5.97 13.43 13.43 0 0 0-7.784-2.171q-7.152 0-11.057 5.115t-3.909 14.859q0 9.791 3.906 14.769t11.057 4.98a13.7 13.7 0 0 0 7.978-2.282 14.3 14.3 0 0 0 5.007-6.243l-2.7-1.6a11.63 11.63 0 0 1-3.851 5.253" data-name="Pfad 2167"/><path fill="#2b2e34" d="M293.944 28.587a8.9 8.9 0 0 0-5.391 1.458 8.73 8.73 0 0 0-2.916 3.657h-.163v-17h-3.137v40.713h3.137V37.608a5.7 5.7 0 0 1 .63-2.722 5.6 5.6 0 0 1 1.708-1.951 7.8 7.8 0 0 1 2.448-1.157 10.6 10.6 0 0 1 2.86-.384 6.77 6.77 0 0 1 5.369 2.09q1.839 2.093 1.842 6.382v17.549h3.134v-18.1q0-5.173-2.5-7.951a8.98 8.98 0 0 0-7.021-2.777" data-name="Pfad 2168"/><path fill="#2b2e34" d="M331.959 32.453a10.8 10.8 0 0 0-3.74-2.843 11.5 11.5 0 0 0-4.9-1.022 12.2 12.2 0 0 0-5.059 1.016 11 11 0 0 0-3.878 2.918 13 13 0 0 0-2.476 4.619 20.7 20.7 0 0 0-.852 6.192 21 21 0 0 0 .852 6.216 13 13 0 0 0 2.476 4.647 10.6 10.6 0 0 0 3.909 2.888 12.6 12.6 0 0 0 5.09.99 12.24 12.24 0 0 0 6.849-1.856 10.93 10.93 0 0 0 4.152-4.976l-2.31-1.531a8.54 8.54 0 0 1-8.531 5.669 9.55 9.55 0 0 1-3.85-.745 8.2 8.2 0 0 1-2.889-2.064 9.1 9.1 0 0 1-1.811-3.161 12.4 12.4 0 0 1-.634-4.045v-1.374h20.85v-1.487a17.9 17.9 0 0 0-.852-5.658 13.1 13.1 0 0 0-2.393-4.391m-.171 9.115h-17.437v-.274a12.4 12.4 0 0 1 .637-4.044 9.1 9.1 0 0 1 1.811-3.162 8.4 8.4 0 0 1 2.833-2.063 8.9 8.9 0 0 1 3.688-.745 8.2 8.2 0 0 1 3.439.717 8 8 0 0 1 2.694 1.981 8.7 8.7 0 0 1 1.735 3.106 13 13 0 0 1 .6 4.045Z" data-name="Pfad 2169"/><path fill="#2b2e34" d="M379.104 31.366a8.7 8.7 0 0 0-6.932-2.775 9.25 9.25 0 0 0-5.917 1.729 8.57 8.57 0 0 0-2.94 4.207h-.16a8.12 8.12 0 0 0-3.359-4.508 9.9 9.9 0 0 0-5.341-1.428 10 10 0 0 0-3.05.41 7.2 7.2 0 0 0-2.226 1.129 7.7 7.7 0 0 0-1.6 1.621 9.8 9.8 0 0 0-1.1 1.953h-.163v-4.457h-3.137v28.166h3.137V37.61a5.9 5.9 0 0 1 .6-2.722 5.5 5.5 0 0 1 1.657-1.953 7.4 7.4 0 0 1 2.392-1.157 10 10 0 0 1 2.778-.387q7.043 0 7.043 8.47v17.55h3.134V37.665a5.77 5.77 0 0 1 2.23-4.7 6.8 6.8 0 0 1 2.337-1.184 10 10 0 0 1 2.805-.39q7.1 0 7.1 8.47v17.55h3.133V39.317q0-5.173-2.421-7.951" data-name="Pfad 2170"/></g></svg>